<?xml version="1.0" standalone="no"?>
<!DOCTYPE svg PUBLIC "-//W3C//DTD SVG 20010904//EN"
 "http://www.w3.org/TR/2001/REC-SVG-20010904/DTD/svg10.dtd">
<svg version="1.0" xmlns="http://www.w3.org/2000/svg"
 width="16.000000pt" height="16.000000pt" viewBox="0 0 16.000000 16.000000"
 preserveAspectRatio="xMidYMid meet">
<metadata>
Created by potrace 1.11, written by Peter Selinger 2001-2013
</metadata>
<g transform="translate(0.000000,16.000000) scale(0.008163,-0.008163)"
fill="#000000" stroke="none">
<path d="M932 1876 c-18 -13 -83 -70 -144 -128 -113 -105 -299 -272 -354 -317
-16 -13 -69 -60 -119 -105 -49 -45 -95 -85 -101 -91 -6 -5 -48 -44 -94 -85
-45 -41 -89 -79 -96 -83 -8 -4 -14 -17 -14 -27 0 -15 7 -20 28 -21 15 0 46 -2
68 -2 25 -1 50 -10 63 -21 21 -19 21 -24 21 -461 l0 -442 23 -21 c20 -19 35
-22 104 -22 l80 0 0 378 c1 323 3 386 18 442 96 368 491 549 828 381 206 -103
330 -311 322 -538 -14 -387 -379 -652 -747 -542 l-69 20 -104 -67 c-58 -37
-105 -69 -105 -71 0 -1 267 -3 594 -3 556 0 595 1 616 18 l22 18 0 441 c-1
519 -8 484 103 489 38 2 73 8 79 14 12 13 24 1 -249 245 -43 39 -90 81 -105
95 -15 14 -63 57 -106 95 -43 39 -124 111 -179 160 -333 301 -324 295 -383
251z"/>
<path d="M840 1029 c0 -5 -6 -9 -14 -9 -8 0 -23 -12 -33 -26 -15 -20 -29 -26
-67 -29 -38 -2 -54 -9 -72 -31 -21 -24 -29 -44 -25 -66 0 -4 -14 -15 -32 -24
-17 -9 -39 -24 -48 -33 -22 -23 -38 -75 -28 -92 10 -19 6 -48 -8 -57 -27 -18
-51 -106 -32 -117 5 -4 9 -14 9 -23 0 -9 13 -26 28 -37 26 -19 45 -20 427 -20
220 -1 411 3 425 7 33 12 58 41 64 73 3 15 7 30 10 32 7 7 -24 66 -39 75 -9 5
-12 26 -10 63 2 30 0 55 -5 55 -4 0 -10 10 -14 23 -3 14 -20 29 -45 41 -23 9
-40 20 -39 24 1 4 -1 21 -5 39 -8 38 -63 71 -114 68 -18 -1 -33 2 -33 6 0 16
-49 61 -59 54 -6 -3 -11 -2 -11 2 0 12 -38 9 -83 -6 -29 -10 -41 -10 -52 -1
-17 14 -95 21 -95 9z"/>
</g>
</svg>
